<svg id="visual" viewBox="0 0 900 600" width="900" height="600" xmlns="http://www.w3.org/2000/svg" xmlns:xlink="http://www.w3.org/1999/xlink" version="1.1"><rect x="0" y="0" width="900" height="600" fill="#FFFFFF"></rect><defs><linearGradient id="grad1_0" x1="33.3%" y1="0%" x2="100%" y2="100%"><stop offset="20%" stop-color="#2196f3" stop-opacity="1"></stop><stop offset="80%" stop-color="#2196f3" stop-opacity="1"></stop></linearGradient></defs><defs><linearGradient id="grad1_1" x1="33.3%" y1="0%" x2="100%" y2="100%"><stop offset="20%" stop-color="#2196f3" stop-opacity="1"></stop><stop offset="80%" stop-color="#6baaf6" stop-opacity="1"></stop></linearGradient></defs><defs><linearGradient id="grad1_2" x1="33.3%" y1="0%" x2="100%" y2="100%"><stop offset="20%" stop-color="#97bef9" stop-opacity="1"></stop><stop offset="80%" stop-color="#6baaf6" stop-opacity="1"></stop></linearGradient></defs><defs><linearGradient id="grad1_3" x1="33.3%" y1="0%" x2="100%" y2="100%"><stop offset="20%" stop-color="#97bef9" stop-opacity="1"></stop><stop offset="80%" stop-color="#bcd3fb" stop-opacity="1"></stop></linearGradient></defs><defs><linearGradient id="grad1_4" x1="33.3%" y1="0%" x2="100%" y2="100%"><stop offset="20%" stop-color="#dee9fd" stop-opacity="1"></stop><stop offset="80%" stop-color="#bcd3fb" stop-opacity="1"></stop></linearGradient></defs><defs><linearGradient id="grad1_5" x1="33.3%" y1="0%" x2="100%" y2="100%"><stop offset="20%" stop-color="#dee9fd" stop-opacity="1"></stop><stop offset="80%" stop-color="#ffffff" stop-opacity="1"></stop></linearGradient></defs><defs><linearGradient id="grad2_0" x1="0%" y1="0%" x2="66.7%" y2="100%"><stop offset="20%" stop-color="#2196f3" stop-opacity="1"></stop><stop offset="80%" stop-color="#2196f3" stop-opacity="1"></stop></linearGradient></defs><defs><linearGradient id="grad2_1" x1="0%" y1="0%" x2="66.7%" y2="100%"><stop offset="20%" stop-color="#6baaf6" stop-opacity="1"></stop><stop offset="80%" stop-color="#2196f3" stop-opacity="1"></stop></linearGradient></defs><defs><linearGradient id="grad2_2" x1="0%" y1="0%" x2="66.7%" y2="100%"><stop offset="20%" stop-color="#6baaf6" stop-opacity="1"></stop><stop offset="80%" stop-color="#97bef9" stop-opacity="1"></stop></linearGradient></defs><defs><linearGradient id="grad2_3" x1="0%" y1="0%" x2="66.7%" y2="100%"><stop offset="20%" stop-color="#bcd3fb" stop-opacity="1"></stop><stop offset="80%" stop-color="#97bef9" stop-opacity="1"></stop></linearGradient></defs><defs><linearGradient id="grad2_4" x1="0%" y1="0%" x2="66.7%" y2="100%"><stop offset="20%" stop-color="#bcd3fb" stop-opacity="1"></stop><stop offset="80%" stop-color="#dee9fd" stop-opacity="1"></stop></linearGradient></defs><defs><linearGradient id="grad2_5" x1="0%" y1="0%" x2="66.7%" y2="100%"><stop offset="20%" stop-color="#ffffff" stop-opacity="1"></stop><stop offset="80%" stop-color="#dee9fd" stop-opacity="1"></stop></linearGradient></defs><g transform="translate(900, 0)"><path d="M0 486.7C-70 486.3 -140 485.8 -186.3 449.7C-232.5 413.6 -255 342 -293.4 293.4C-331.9 244.9 -386.4 219.6 -421.3 174.5C-456.2 129.5 -471.5 64.7 -486.7 0L0 0Z" fill="#eff4fe"></path><path d="M0 405.6C-58.3 405.2 -116.7 404.8 -155.2 374.7C-193.8 344.7 -212.5 285 -244.5 244.5C-276.6 204.1 -322 183 -351.1 145.4C-380.1 107.9 -392.9 53.9 -405.6 0L0 0Z" fill="#cedefc"></path><path d="M0 324.5C-46.7 324.2 -93.4 323.8 -124.2 299.8C-155 275.7 -170 228 -195.6 195.6C-221.3 163.3 -257.6 146.4 -280.9 116.3C-304.1 86.3 -314.3 43.2 -324.5 0L0 0Z" fill="#aac9fa"></path><path d="M0 243.4C-35 243.1 -70 242.9 -93.1 224.8C-116.3 206.8 -127.5 171 -146.7 146.7C-166 122.5 -193.2 109.8 -210.6 87.3C-228.1 64.7 -235.7 32.4 -243.4 0L0 0Z" fill="#82b4f7"></path><path d="M0 162.2C-23.3 162.1 -46.7 161.9 -62.1 149.9C-77.5 137.9 -85 114 -97.8 97.8C-110.6 81.6 -128.8 73.2 -140.4 58.2C-152.1 43.2 -157.2 21.6 -162.2 0L0 0Z" fill="#4fa0f5"></path><path d="M0 81.1C-11.7 81 -23.3 81 -31 74.9C-38.8 68.9 -42.5 57 -48.9 48.9C-55.3 40.8 -64.4 36.6 -70.2 29.1C-76 21.6 -78.6 10.8 -81.1 0L0 0Z" fill="#2196f3"></path></g><g transform="translate(0, 600)"><path d="M0 -486.7C66.6 -483.7 133.3 -480.7 186.3 -449.7C239.3 -418.7 278.6 -359.6 306.9 -306.9C335.2 -254.2 352.5 -207.8 380.6 -157.7C408.8 -107.6 447.8 -53.8 486.7 0L0 0Z" fill="#eff4fe"></path><path d="M0 -405.6C55.5 -403.1 111.1 -400.6 155.2 -374.7C199.4 -348.9 232.1 -299.7 255.7 -255.7C279.3 -211.8 293.7 -173.1 317.2 -131.4C340.7 -89.6 373.1 -44.8 405.6 0L0 0Z" fill="#cedefc"></path><path d="M0 -324.5C44.4 -322.5 88.9 -320.5 124.2 -299.8C159.5 -279.1 185.7 -239.7 204.6 -204.6C223.5 -169.4 235 -138.5 253.8 -105.1C272.5 -71.7 298.5 -35.9 324.5 0L0 0Z" fill="#aac9fa"></path><path d="M0 -243.4C33.3 -241.9 66.6 -240.4 93.1 -224.8C119.6 -209.3 139.3 -179.8 153.4 -153.4C167.6 -127.1 176.2 -103.9 190.3 -78.8C204.4 -53.8 223.9 -26.9 243.4 0L0 0Z" fill="#82b4f7"></path><path d="M0 -162.2C22.2 -161.2 44.4 -160.2 62.1 -149.9C79.8 -139.6 92.9 -119.9 102.3 -102.3C111.7 -84.7 117.5 -69.3 126.9 -52.6C136.3 -35.9 149.3 -17.9 162.2 0L0 0Z" fill="#4fa0f5"></path><path d="M0 -81.1C11.1 -80.6 22.2 -80.1 31 -74.9C39.9 -69.8 46.4 -59.9 51.1 -51.1C55.9 -42.4 58.7 -34.6 63.4 -26.3C68.1 -17.9 74.6 -9 81.1 0L0 0Z" fill="#2196f3"></path></g></svg>